<svg xmlns="http://www.w3.org/2000/svg" width="31" height="26" id="folder">
  <path fill-rule="evenodd" d="M29.95 4.115H17.622L15.974.797a.536.536 0 0 0-.48-.297H2.846a.536.536 0 0 0-.482.297L.557 4.42c-.02.039.002.078-.01.117-.01.041-.047.07-.047.117v19.877c0 .295.24.537.537.537h22.311a2.663 2.663 0 0 1-.24-1.076H1.577V5.191h15.648c.027.006.047.021.074.021.029 0 .059-.016.088-.021h12.025v12.5c.385 0 .746.088 1.076.232V4.653a.54.54 0 0 0-.538-.538zm-28.041 0 1.268-2.539h11.982l1.262 2.539H1.909zm27.502 15.729a.538.538 0 1 1 0 1.076h-3.074l-.002 3.072a.538.538 0 0 1-.916.381.543.543 0 0 1-.16-.381l.002-3.072h-3.074a.537.537 0 0 1-.383-.158.546.546 0 0 1-.154-.379c0-.299.238-.539.537-.539h3.074l-.002-3.076c0-.299.242-.537.539-.537.297 0 .537.238.537.537l.002 3.076h3.074z"></path>
</svg>
